<svg width="261" height="45" viewBox="0 0 261 45" fill="none" xmlns="http://www.w3.org/2000/svg">
<path d="M21.5625 45H0.875C0.708333 45 0.625 44.8958 0.625 44.6875L0.6875 0.78125C0.6875 0.572917 0.791667 0.46875 1 0.46875H8.125C8.33333 0.46875 8.4375 0.572917 8.4375 0.78125L8.375 37.125H21.5625C21.7708 37.125 21.875 37.2292 21.875 37.4375V44.6875C21.875 44.8958 21.7708 45 21.5625 45ZM23.9062 44.6875L31.8438 0.71875C31.8854 0.552083 31.9896 0.46875 32.1562 0.46875H41.4375C41.6042 0.46875 41.7083 0.552083 41.75 0.71875L49.375 44.6875C49.3958 44.8958 49.3125 45 49.125 45H42.0312C41.8229 45 41.7083 44.8958 41.6875 44.6875L41 40H32.2812L31.5938 44.6875C31.5729 44.8958 31.4688 45 31.2812 45H24.1562C23.9896 45 23.9062 44.8958 23.9062 44.6875ZM37.0938 15.1875L36.7188 12.8125L36.4375 15.1875L33.5625 33.1562H39.7188L37.0938 15.1875ZM60.875 45H53.6875C53.4792 45 53.375 44.8958 53.375 44.6875L53.5 0.71875C53.5 0.552083 53.5833 0.46875 53.75 0.46875H66.0625C69.9792 0.46875 73.0729 1.66667 75.3438 4.0625C77.6354 6.4375 78.7812 9.67708 78.7812 13.7812C78.7812 16.7812 78.1875 19.3958 77 21.625C75.7917 23.8333 74.2292 25.5417 72.3125 26.75C70.3958 27.9583 68.3125 28.5625 66.0625 28.5625H61.1875V44.6875C61.1875 44.8958 61.0833 45 60.875 45ZM66.0625 8.0625L61.1875 8.125V20.8125H66.0625C67.4167 20.8125 68.5938 20.1667 69.5938 18.875C70.5938 17.5625 71.0938 15.8646 71.0938 13.7812C71.0938 12.1146 70.6458 10.75 69.75 9.6875C68.8542 8.60417 67.625 8.0625 66.0625 8.0625ZM90.6875 45H83.4375C83.2292 45 83.125 44.8958 83.125 44.6875L83.1875 0.71875C83.1875 0.552083 83.2708 0.46875 83.4375 0.46875H90.625C90.7917 0.46875 90.875 0.552083 90.875 0.71875L90.9375 44.6875C90.9375 44.8958 90.8542 45 90.6875 45ZM103.531 45H97.125C96.7917 45 96.625 44.8542 96.625 44.5625L96.5625 0.96875C96.5625 0.635417 96.7292 0.46875 97.0625 0.46875H102.844L113.656 25.6875L113.344 0.96875C113.344 0.635417 113.531 0.46875 113.906 0.46875H120.25C120.5 0.46875 120.625 0.635417 120.625 0.96875L120.688 44.625C120.688 44.875 120.583 45 120.375 45H114.75L103.656 21.4375L104.125 44.5C104.125 44.8333 103.927 45 103.531 45ZM147.188 45H126.5C126.333 45 126.25 44.8958 126.25 44.6875L126.312 0.78125C126.312 0.572917 126.417 0.46875 126.625 0.46875H133.75C133.958 0.46875 134.062 0.572917 134.062 0.78125L134 37.125H147.188C147.396 37.125 147.5 37.2292 147.5 37.4375V44.6875C147.5 44.8958 147.396 45 147.188 45ZM172.625 45H151.938C151.771 45 151.688 44.8958 151.688 44.6875L151.75 0.71875C151.75 0.552083 151.833 0.46875 152 0.46875H172.562C172.729 0.46875 172.812 0.572917 172.812 0.78125V7.9375C172.812 8.10417 172.729 8.1875 172.562 8.1875H159.438V18.1875H172.562C172.729 18.1875 172.812 18.2708 172.812 18.4375L172.875 25.6875C172.875 25.8542 172.792 25.9375 172.625 25.9375H159.438V37.125H172.625C172.792 37.125 172.875 37.2292 172.875 37.4375V44.75C172.875 44.9167 172.792 45 172.625 45ZM176.406 44.6875L184.344 0.71875C184.385 0.552083 184.49 0.46875 184.656 0.46875H193.938C194.104 0.46875 194.208 0.552083 194.25 0.71875L201.875 44.6875C201.896 44.8958 201.812 45 201.625 45H194.531C194.323 45 194.208 44.8958 194.188 44.6875L193.5 40H184.781L184.094 44.6875C184.073 44.8958 183.969 45 183.781 45H176.656C176.49 45 176.406 44.8958 176.406 44.6875ZM189.594 15.1875L189.219 12.8125L188.938 15.1875L186.062 33.1562H192.219L189.594 15.1875ZM213.375 45H206.125C205.958 45 205.875 44.8958 205.875 44.6875L206 0.71875C206 0.552083 206.083 0.46875 206.25 0.46875H219.188C221.5 0.46875 223.625 1.03125 225.562 2.15625C227.5 3.28125 229.042 4.79167 230.188 6.6875C231.354 8.58333 231.938 10.7292 231.938 13.125C231.938 14.6875 231.698 16.1042 231.219 17.375C230.74 18.6458 230.177 19.7188 229.531 20.5938C228.906 21.4688 228.333 22.1146 227.812 22.5312C230.125 25.0938 231.281 28.1042 231.281 31.5625L231.344 44.6875C231.344 44.8958 231.24 45 231.031 45H223.781C223.615 45 223.531 44.9375 223.531 44.8125V31.5625C223.531 30.0208 222.99 28.6875 221.906 27.5625C220.823 26.4375 219.49 25.875 217.906 25.875H213.688L213.625 44.6875C213.625 44.8958 213.542 45 213.375 45ZM219.188 8.125H213.688V18.1875H219.188C220.5 18.1875 221.667 17.6979 222.688 16.7188C223.729 15.7396 224.25 14.5417 224.25 13.125C224.25 11.7708 223.75 10.6042 222.75 9.625C221.75 8.625 220.562 8.125 219.188 8.125ZM243.719 45H237.312C236.979 45 236.812 44.8542 236.812 44.5625L236.75 0.96875C236.75 0.635417 236.917 0.46875 237.25 0.46875H243.031L253.844 25.6875L253.531 0.96875C253.531 0.635417 253.719 0.46875 254.094 0.46875H260.438C260.688 0.46875 260.812 0.635417 260.812 0.96875L260.875 44.625C260.875 44.875 260.771 45 260.562 45H254.938L243.844 21.4375L244.312 44.5C244.312 44.8333 244.115 45 243.719 45Z" fill="#EE5D28"/>
</svg>
